<svg width="22" height="22" viewBox="0 0 22 22" fill="none" xmlns="http://www.w3.org/2000/svg">
<path d="M17.875 6.875L16.5092 8.24084L13.7592 5.49084L15.125 4.125C15.51 3.74 16.005 3.55667 16.5 3.55667C16.995 3.55667 17.49 3.74 17.875 4.125C18.6358 4.88584 18.6358 6.11417 17.875 6.875Z" fill="#FF1A1A"/>
<path d="M15.8675 8.89166L5.95834 18.7917C5.1975 19.5525 3.96917 19.5525 3.20834 18.7917C2.4475 18.0308 2.4475 16.8025 3.20834 16.0417L13.1175 6.14166L15.8675 8.89166Z" fill="#FF1A1A"/>
<path d="M9.12083 3.20832L9.49666 1.93415C9.53333 1.81498 9.49666 1.68665 9.41416 1.59498C9.33166 1.50332 9.185 1.46665 9.06583 1.50332L7.79166 1.87915L6.5175 1.50332C6.39833 1.46665 6.27 1.50332 6.17833 1.58582C6.08666 1.67749 6.05916 1.80582 6.09583 1.92498L6.4625 3.20832L6.08666 4.48249C6.05 4.60165 6.08666 4.72999 6.16916 4.82165C6.26083 4.91332 6.38916 4.94082 6.50833 4.90415L7.79166 4.53748L9.06583 4.91332C9.1025 4.92249 9.13 4.93165 9.16666 4.93165C9.25833 4.93165 9.34083 4.89498 9.41416 4.83082C9.50583 4.73915 9.53333 4.61082 9.49666 4.49165L9.12083 3.20832Z" fill="#FF1A1A"/>
<path d="M5.45417 8.70832L5.83001 7.43415C5.86667 7.31498 5.83001 7.18665 5.74751 7.09498C5.65584 7.00332 5.52751 6.97582 5.40834 7.01249L4.12501 7.37915L2.85084 7.00332C2.73167 6.96665 2.60334 7.00332 2.51167 7.08582C2.42001 7.17749 2.39251 7.30582 2.42917 7.42499L2.79584 8.70832L2.42001 9.98249C2.38334 10.1017 2.42001 10.23 2.50251 10.3217C2.59417 10.4133 2.72251 10.4408 2.84167 10.4042L4.11584 10.0283L5.39001 10.4042C5.41751 10.4133 5.45417 10.4133 5.49084 10.4133C5.5825 10.4133 5.66501 10.3767 5.73834 10.3125C5.83001 10.2208 5.85751 10.0925 5.82084 9.97332L5.45417 8.70832Z" fill="#FF1A1A"/>
<path d="M19.2042 13.2917L19.58 12.0175C19.6167 11.8983 19.58 11.77 19.4975 11.6783C19.4058 11.5867 19.2775 11.5592 19.1583 11.5958L17.8842 11.9717L16.61 11.5958C16.4908 11.5592 16.3625 11.5958 16.2708 11.6783C16.1792 11.77 16.1517 11.8983 16.1883 12.0175L16.5642 13.2917L16.1883 14.5658C16.1517 14.685 16.1883 14.8133 16.2708 14.905C16.3625 14.9967 16.4908 15.0242 16.61 14.9875L17.8842 14.6117L19.1583 14.9875C19.1858 14.9967 19.2225 14.9967 19.2592 14.9967C19.3508 14.9967 19.4333 14.96 19.5067 14.8958C19.5983 14.8042 19.6258 14.6758 19.5892 14.5567L19.2042 13.2917Z" fill="#FF1A1A"/>
</svg>
