<svg width="22" height="22" viewBox="0 0 22 22" fill="none" xmlns="http://www.w3.org/2000/svg">
<path d="M9.85416 20.625H12.1642C13.0442 20.625 13.6125 20.0016 13.4475 19.2408L13.0717 17.5817H8.94667L8.57083 19.2408C8.40583 19.9558 9.02916 20.625 9.85416 20.625Z" stroke="#E40000" stroke-width="1.5" stroke-linecap="round" stroke-linejoin="round"/>
<path d="M13.0717 17.5725L14.6575 16.1608C15.5467 15.3725 15.5833 14.8225 14.8775 13.9333L12.0817 10.3859C11.495 9.64335 10.5325 9.64335 9.94583 10.3859L7.15 13.9333C6.44417 14.8225 6.44417 15.4 7.37 16.1608L8.95583 17.5725" stroke="#E40000" stroke-width="1.5" stroke-linecap="round" stroke-linejoin="round"/>
<path d="M11.0092 10.1933V12.5125" stroke="#E40000" stroke-width="1.5" stroke-linecap="round" stroke-linejoin="round"/>
<path d="M10.2208 4.75751L9.50583 4.04249C9.075 3.61165 9.075 2.91503 9.50583 2.4842L10.2208 1.76917C10.6517 1.33834 11.3483 1.33834 11.7792 1.76917L12.4942 2.4842C12.925 2.91503 12.925 3.61165 12.4942 4.04249L11.7792 4.75751C11.3483 5.18835 10.6517 5.18835 10.2208 4.75751Z" stroke="#E40000" stroke-width="1.5" stroke-linecap="round" stroke-linejoin="round"/>
<path d="M17.8292 8.99249H18.8375C19.4425 8.99249 19.9375 9.4875 19.9375 10.0925V11.1008C19.9375 11.7058 19.4425 12.2009 18.8375 12.2009H17.8292C17.2242 12.2009 16.7292 11.7058 16.7292 11.1008V10.0925C16.7292 9.4875 17.2242 8.99249 17.8292 8.99249Z" stroke="#E40000" stroke-width="1.5" stroke-linecap="round" stroke-linejoin="round"/>
<path d="M4.17084 8.99249H3.1625C2.5575 8.99249 2.0625 9.4875 2.0625 10.0925V11.1008C2.0625 11.7058 2.5575 12.2009 3.1625 12.2009H4.17084C4.77584 12.2009 5.27083 11.7058 5.27083 11.1008V10.0925C5.27083 9.4875 4.77584 8.99249 4.17084 8.99249Z" stroke="#E40000" stroke-width="1.5" stroke-linecap="round" stroke-linejoin="round"/>
<path d="M16.995 9.25832L12.1367 4.39999" stroke="#E40000" stroke-width="1.5" stroke-linecap="round" stroke-linejoin="round"/>
<path d="M5.005 9.25832L9.86333 4.39999" stroke="#E40000" stroke-width="1.5" stroke-linecap="round" stroke-linejoin="round"/>
</svg>
